<?xml version="1.0" standalone="no"?>
<!DOCTYPE svg PUBLIC "-//W3C//DTD SVG 20010904//EN"
 "http://www.w3.org/TR/2001/REC-SVG-20010904/DTD/svg10.dtd">
<svg version="1.0" xmlns="http://www.w3.org/2000/svg"
 width="360.000000pt" height="360.000000pt" viewBox="0 0 360.000000 360.000000"
 preserveAspectRatio="xMidYMid meet">

<g transform="translate(0.000000,360.000000) scale(0.100000,-0.100000)"
fill="#000000" stroke="none">
<path d="M2365 2499 c-8 -25 3 -109 14 -109 4 0 13 -11 20 -24 16 -30 0 -65
-58 -121 -46 -44 -54 -70 -18 -60 64 19 109 49 132 88 58 100 56 200 -5 232
-42 22 -77 19 -85 -6z"/>
<path d="M2581 2498 c-13 -37 -1 -94 25 -119 13 -12 24 -28 24 -35 0 -7 -27
-43 -60 -81 -83 -93 -80 -102 21 -57 81 36 121 107 121 211 0 41 -5 52 -31 75
-40 36 -88 38 -100 6z m-1 -278 c-8 -5 -19 -10 -25 -10 -5 0 -3 5 5 10 8 5 20
10 25 10 6 0 3 -5 -5 -10z"/>
<path d="M1295 2423 c-282 -22 -442 -63 -518 -132 -106 -95 -165 -220 -188
-396 -13 -102 -7 -581 8 -596 5 -5 24 -6 41 -3 l32 7 0 241 c0 350 16 475 74
595 78 163 240 198 966 208 281 4 407 9 412 17 4 6 8 20 8 32 0 20 -7 21 -122
27 -119 7 -634 7 -713 0z"/>
<path d="M2940 2111 l-25 -7 3 -120 c5 -157 -14 -491 -33 -577 -21 -99 -62
-183 -109 -223 -102 -87 -399 -124 -1012 -124 l-301 0 -7 -32 c-3 -17 -4 -34
-1 -37 13 -12 737 -13 867 -1 212 19 341 47 432 92 52 26 128 109 166 180 58
108 72 188 77 441 6 254 -2 418 -20 416 -7 -1 -23 -4 -37 -8z"/>
<path d="M859 1720 c-42 -144 -44 -160 -28 -160 17 0 39 49 39 88 0 8 16 12
49 12 l49 0 12 -50 c9 -37 17 -50 30 -50 18 0 18 3 -1 68 -11 37 -31 109 -46
160 -38 135 -47 128 -104 -68z m84 30 c8 -32 13 -61 11 -63 -2 -1 -18 -1 -37
1 l-33 4 15 59 c9 32 18 59 22 59 4 0 13 -27 22 -60z"/>
<path d="M1350 1853 c-23 -22 -33 -41 -39 -83 -12 -75 2 -158 32 -188 33 -33
88 -34 121 -3 67 63 53 264 -20 291 -41 16 -62 12 -94 -17z m96 -24 c16 -18
19 -37 19 -115 0 -83 -2 -96 -22 -116 -19 -18 -27 -20 -50 -12 -37 13 -56 69
-51 150 6 101 56 146 104 93z"/>
<path d="M1565 1870 c-13 -22 -8 -255 6 -278 29 -46 122 -48 155 -5 20 27 20
279 -1 287 -13 5 -15 -13 -15 -124 0 -117 -2 -132 -20 -150 -11 -11 -29 -20
-40 -20 -11 0 -29 9 -40 20 -18 18 -20 33 -20 144 0 114 -8 154 -25 126z"/>
<path d="M2283 1863 c-11 -29 3 -248 17 -271 28 -43 106 -48 148 -10 21 20 22
29 22 155 0 112 -2 133 -15 133 -13 0 -15 -21 -15 -125 0 -112 -2 -127 -20
-145 -24 -24 -48 -25 -78 -4 -21 14 -22 22 -22 148 0 115 -2 133 -16 133 -9 0
-18 -6 -21 -14z"/>
<path d="M2559 1851 c-33 -33 -39 -80 -13 -102 9 -8 42 -27 73 -44 51 -28 56
-33 56 -65 0 -27 -6 -37 -27 -50 -25 -13 -31 -13 -55 0 -16 9 -29 26 -31 38
-3 22 -42 33 -42 11 0 -19 34 -69 51 -74 44 -14 91 -8 114 16 54 55 32 115
-60 158 -52 24 -71 52 -55 80 21 41 85 38 96 -5 4 -15 13 -24 26 -24 26 0 16
36 -18 68 -35 31 -79 29 -115 -7z"/>
<path d="M1070 1714 l0 -156 74 4 c93 4 116 21 116 84 0 35 -5 46 -27 63 l-28
20 23 16 c30 22 30 77 0 105 -17 16 -35 20 -90 20 l-68 0 0 -156z m128 120
c24 -17 29 -51 10 -76 -8 -10 -31 -18 -58 -20 l-45 -3 -3 44 c-2 24 -1 50 2
57 7 19 66 18 94 -2z m12 -144 c43 -43 12 -97 -60 -102 l-45 -3 -3 63 -3 62
46 0 c32 0 51 -6 65 -20z"/>
<path d="M1800 1860 c0 -5 17 -10 38 -10 l37 0 -3 -145 c-3 -141 -2 -145 17
-145 20 0 21 5 21 145 l0 145 41 0 c24 0 38 4 34 10 -3 6 -46 10 -96 10 -53 0
-89 -4 -89 -10z"/>
<path d="M911 1305 c-87 -31 -141 -116 -141 -222 0 -36 6 -50 29 -74 36 -35
85 -40 101 -9 15 28 2 89 -26 123 -22 26 -23 30 -9 56 8 16 11 32 7 36 -4 5
-2 5 4 2 7 -4 30 13 53 38 59 64 55 77 -18 50z"/>
<path d="M1145 1312 c-11 -4 -39 -18 -63 -31 -68 -40 -116 -162 -92 -235 14
-43 51 -68 93 -64 31 3 32 5 35 54 2 44 -1 56 -24 83 -33 39 -28 51 45 133 28
31 51 59 51 62 0 7 -18 6 -45 -2z"/>
</g>
</svg>
